# xmcd
#
# Track frame offsets:
#	150
#	2567
#	16889
#	19299
#	28546
#
# Disc length: 548
#
# Revision: 1
# Processed by: cddbd v1.5.1PL0 Copyright (c) Steve Scherf et al.
# Submitted via: AltoMP3 Maker 3.0
# Normalized: r0:TRMNUM
#
DISCID=2b022205
DTITLE=Antenne Bayern - Metzgerei Boggnsagg
DYEAR=1900
DGENRE=
TTITLE0=Begrüßung
TTITLE1=Metzgerei Boggnsagg " Fernsehwahnsinn"
TTITLE2=Schorsch Boggnsagg bespricht Ihren Anrufbeantworter
TTITLE3=" Vom Duden und Blasn Ka Ahnung
TTITLE4=Metzgrerei Boggnsagg " Bauer-Dragg"
EXTD=
EXTT0=
EXTT1=
EXTT2=
EXTT3=
EXTT4=
PLAYORDER=
